<mxfile host="app.diagrams.net" modified="2022-03-23T12:42:34.584Z" agent="5.0 (Macintosh; Intel Mac OS X 10_15_7) AppleWebKit/537.36 (KHTML, like Gecko) Chrome/93.0.4577.82 Safari/537.36" etag="W2gGUm087lM9CF5kj5KA" version="16.5.2" type="github">
  <diagram id="Iqppwu7Mz3QEscLfNfbv" name="Page-1">
    <mxGraphModel dx="1186" dy="741" grid="1" gridSize="10" guides="1" tooltips="1" connect="1" arrows="1" fold="1" page="1" pageScale="1" pageWidth="827" pageHeight="1169" math="0" shadow="0">
      <root>
        <mxCell id="0" />
        <mxCell id="1" parent="0" />
        <mxCell id="xS8MUs-kONUIonzYjEmB-38" value="" style="rounded=0;whiteSpace=wrap;html=1;dashed=1;" vertex="1" parent="1">
          <mxGeometry x="578" y="350" width="249" height="54" as="geometry" />
        </mxCell>
        <mxCell id="xS8MUs-kONUIonzYjEmB-1" value="" style="edgeStyle=none;html=1;" edge="1" parent="1" source="xS8MUs-kONUIonzYjEmB-2" target="xS8MUs-kONUIonzYjEmB-4">
          <mxGeometry relative="1" as="geometry" />
        </mxCell>
        <mxCell id="xS8MUs-kONUIonzYjEmB-2" value="cinder-backup" style="rounded=0;whiteSpace=wrap;html=1;" vertex="1" parent="1">
          <mxGeometry x="414" y="230" width="230" height="90" as="geometry" />
        </mxCell>
        <mxCell id="xS8MUs-kONUIonzYjEmB-12" style="edgeStyle=orthogonalEdgeStyle;rounded=0;orthogonalLoop=1;jettySize=auto;html=1;exitX=0.5;exitY=1;exitDx=0;exitDy=0;" edge="1" parent="1" source="xS8MUs-kONUIonzYjEmB-4">
          <mxGeometry relative="1" as="geometry">
            <mxPoint x="270" y="440" as="targetPoint" />
          </mxGeometry>
        </mxCell>
        <mxCell id="xS8MUs-kONUIonzYjEmB-42" style="edgeStyle=orthogonalEdgeStyle;rounded=0;orthogonalLoop=1;jettySize=auto;html=1;exitX=0.5;exitY=1;exitDx=0;exitDy=0;startArrow=none;startFill=0;endArrow=classic;endFill=1;" edge="1" parent="1" source="xS8MUs-kONUIonzYjEmB-4" target="xS8MUs-kONUIonzYjEmB-38">
          <mxGeometry relative="1" as="geometry">
            <Array as="points">
              <mxPoint x="529" y="330" />
              <mxPoint x="703" y="330" />
            </Array>
          </mxGeometry>
        </mxCell>
        <mxCell id="xS8MUs-kONUIonzYjEmB-4" value="backup driver" style="whiteSpace=wrap;html=1;rounded=0;fillColor=#ffe6cc;strokeColor=#d79b00;" vertex="1" parent="1">
          <mxGeometry x="486.5" y="290" width="85" height="30" as="geometry" />
        </mxCell>
        <mxCell id="xS8MUs-kONUIonzYjEmB-5" value="" style="rounded=0;whiteSpace=wrap;html=1;dashed=1;" vertex="1" parent="1">
          <mxGeometry x="150" y="420" width="790" height="190" as="geometry" />
        </mxCell>
        <mxCell id="xS8MUs-kONUIonzYjEmB-6" value="" style="edgeStyle=none;html=1;" edge="1" parent="1" source="xS8MUs-kONUIonzYjEmB-7" target="xS8MUs-kONUIonzYjEmB-8">
          <mxGeometry relative="1" as="geometry" />
        </mxCell>
        <mxCell id="xS8MUs-kONUIonzYjEmB-18" style="edgeStyle=orthogonalEdgeStyle;rounded=0;orthogonalLoop=1;jettySize=auto;html=1;exitX=0.5;exitY=0;exitDx=0;exitDy=0;entryX=0.144;entryY=1.08;entryDx=0;entryDy=0;entryPerimeter=0;" edge="1" parent="1" source="xS8MUs-kONUIonzYjEmB-7" target="xS8MUs-kONUIonzYjEmB-16">
          <mxGeometry relative="1" as="geometry" />
        </mxCell>
        <mxCell id="xS8MUs-kONUIonzYjEmB-7" value="cinder-volume" style="rounded=0;whiteSpace=wrap;html=1;" vertex="1" parent="1">
          <mxGeometry x="150" y="230" width="240" height="90" as="geometry" />
        </mxCell>
        <mxCell id="xS8MUs-kONUIonzYjEmB-11" style="edgeStyle=orthogonalEdgeStyle;rounded=0;orthogonalLoop=1;jettySize=auto;html=1;exitX=0.5;exitY=1;exitDx=0;exitDy=0;" edge="1" parent="1" source="xS8MUs-kONUIonzYjEmB-8">
          <mxGeometry relative="1" as="geometry">
            <mxPoint x="270" y="440" as="targetPoint" />
          </mxGeometry>
        </mxCell>
        <mxCell id="xS8MUs-kONUIonzYjEmB-8" value="cinder driver" style="whiteSpace=wrap;html=1;rounded=0;fillColor=#ffe6cc;strokeColor=#d79b00;" vertex="1" parent="1">
          <mxGeometry x="227.5" y="290" width="85" height="30" as="geometry" />
        </mxCell>
        <mxCell id="xS8MUs-kONUIonzYjEmB-9" value="oJmgs" style="whiteSpace=wrap;html=1;rounded=0;" vertex="1" parent="1">
          <mxGeometry x="222.5" y="440" width="85" height="30" as="geometry" />
        </mxCell>
        <mxCell id="xS8MUs-kONUIonzYjEmB-19" style="edgeStyle=orthogonalEdgeStyle;rounded=0;orthogonalLoop=1;jettySize=auto;html=1;exitX=0.5;exitY=0;exitDx=0;exitDy=0;entryX=0.843;entryY=1;entryDx=0;entryDy=0;entryPerimeter=0;startArrow=classic;startFill=1;endArrow=none;endFill=0;" edge="1" parent="1" source="xS8MUs-kONUIonzYjEmB-14" target="xS8MUs-kONUIonzYjEmB-16">
          <mxGeometry relative="1" as="geometry" />
        </mxCell>
        <mxCell id="xS8MUs-kONUIonzYjEmB-46" style="edgeStyle=orthogonalEdgeStyle;rounded=0;orthogonalLoop=1;jettySize=auto;html=1;exitX=0.5;exitY=1;exitDx=0;exitDy=0;startArrow=none;startFill=0;endArrow=classic;endFill=1;" edge="1" parent="1" source="xS8MUs-kONUIonzYjEmB-14" target="xS8MUs-kONUIonzYjEmB-38">
          <mxGeometry relative="1" as="geometry" />
        </mxCell>
        <mxCell id="xS8MUs-kONUIonzYjEmB-14" value="nova" style="rounded=0;whiteSpace=wrap;html=1;" vertex="1" parent="1">
          <mxGeometry x="690" y="230" width="240" height="90" as="geometry" />
        </mxCell>
        <mxCell id="xS8MUs-kONUIonzYjEmB-39" style="edgeStyle=orthogonalEdgeStyle;rounded=0;orthogonalLoop=1;jettySize=auto;html=1;exitX=0.5;exitY=1;exitDx=0;exitDy=0;entryX=0.353;entryY=0;entryDx=0;entryDy=0;entryPerimeter=0;startArrow=none;startFill=0;endArrow=classic;endFill=1;" edge="1" parent="1" source="xS8MUs-kONUIonzYjEmB-15" target="xS8MUs-kONUIonzYjEmB-20">
          <mxGeometry relative="1" as="geometry" />
        </mxCell>
        <mxCell id="xS8MUs-kONUIonzYjEmB-15" value="iscsi initiator" style="whiteSpace=wrap;html=1;rounded=0;" vertex="1" parent="1">
          <mxGeometry x="604" y="359" width="85" height="30" as="geometry" />
        </mxCell>
        <mxCell id="xS8MUs-kONUIonzYjEmB-16" value="DateBase" style="rounded=0;whiteSpace=wrap;html=1;" vertex="1" parent="1">
          <mxGeometry x="160" y="110" width="770" height="50" as="geometry" />
        </mxCell>
        <mxCell id="xS8MUs-kONUIonzYjEmB-30" style="edgeStyle=orthogonalEdgeStyle;rounded=0;orthogonalLoop=1;jettySize=auto;html=1;exitX=0.5;exitY=1;exitDx=0;exitDy=0;entryX=0.5;entryY=0;entryDx=0;entryDy=0;startArrow=none;startFill=0;endArrow=classic;endFill=1;" edge="1" parent="1" source="xS8MUs-kONUIonzYjEmB-20" target="xS8MUs-kONUIonzYjEmB-29">
          <mxGeometry relative="1" as="geometry" />
        </mxCell>
        <mxCell id="xS8MUs-kONUIonzYjEmB-31" style="edgeStyle=orthogonalEdgeStyle;rounded=0;orthogonalLoop=1;jettySize=auto;html=1;exitX=0.5;exitY=1;exitDx=0;exitDy=0;entryX=0.636;entryY=0.025;entryDx=0;entryDy=0;entryPerimeter=0;startArrow=none;startFill=0;endArrow=classic;endFill=1;" edge="1" parent="1" source="xS8MUs-kONUIonzYjEmB-20" target="xS8MUs-kONUIonzYjEmB-28">
          <mxGeometry relative="1" as="geometry" />
        </mxCell>
        <mxCell id="xS8MUs-kONUIonzYjEmB-32" style="edgeStyle=orthogonalEdgeStyle;rounded=0;orthogonalLoop=1;jettySize=auto;html=1;exitX=0.5;exitY=1;exitDx=0;exitDy=0;entryX=0.5;entryY=0;entryDx=0;entryDy=0;startArrow=none;startFill=0;endArrow=classic;endFill=1;" edge="1" parent="1" source="xS8MUs-kONUIonzYjEmB-20" target="xS8MUs-kONUIonzYjEmB-27">
          <mxGeometry relative="1" as="geometry" />
        </mxCell>
        <mxCell id="xS8MUs-kONUIonzYjEmB-20" value="iscsi target" style="whiteSpace=wrap;html=1;rounded=0;" vertex="1" parent="1">
          <mxGeometry x="610" y="420" width="85" height="30" as="geometry" />
        </mxCell>
        <mxCell id="xS8MUs-kONUIonzYjEmB-41" style="edgeStyle=orthogonalEdgeStyle;rounded=0;orthogonalLoop=1;jettySize=auto;html=1;exitX=0.5;exitY=1;exitDx=0;exitDy=0;entryX=0.636;entryY=0.025;entryDx=0;entryDy=0;entryPerimeter=0;startArrow=none;startFill=0;endArrow=classic;endFill=1;" edge="1" parent="1" source="xS8MUs-kONUIonzYjEmB-25" target="xS8MUs-kONUIonzYjEmB-28">
          <mxGeometry relative="1" as="geometry" />
        </mxCell>
        <mxCell id="xS8MUs-kONUIonzYjEmB-25" value="xclient" style="whiteSpace=wrap;html=1;rounded=0;" vertex="1" parent="1">
          <mxGeometry x="724" y="359" width="85" height="30" as="geometry" />
        </mxCell>
        <mxCell id="xS8MUs-kONUIonzYjEmB-27" value="oSan" style="rounded=0;whiteSpace=wrap;html=1;" vertex="1" parent="1">
          <mxGeometry x="816" y="545" width="110" height="40" as="geometry" />
        </mxCell>
        <mxCell id="xS8MUs-kONUIonzYjEmB-28" value="oSan" style="rounded=0;whiteSpace=wrap;html=1;" vertex="1" parent="1">
          <mxGeometry x="681" y="545" width="110" height="40" as="geometry" />
        </mxCell>
        <mxCell id="xS8MUs-kONUIonzYjEmB-29" value="oSan" style="rounded=0;whiteSpace=wrap;html=1;" vertex="1" parent="1">
          <mxGeometry x="551" y="545" width="110" height="40" as="geometry" />
        </mxCell>
        <mxCell id="xS8MUs-kONUIonzYjEmB-35" value="glance driver" style="rounded=0;whiteSpace=wrap;html=1;dashed=1;" vertex="1" parent="1">
          <mxGeometry x="980" y="200" width="120" height="60" as="geometry" />
        </mxCell>
        <mxCell id="xS8MUs-kONUIonzYjEmB-36" value="nova driver" style="rounded=0;whiteSpace=wrap;html=1;dashed=1;" vertex="1" parent="1">
          <mxGeometry x="980" y="275" width="120" height="60" as="geometry" />
        </mxCell>
        <mxCell id="xS8MUs-kONUIonzYjEmB-37" value="XStor" style="text;html=1;strokeColor=none;fillColor=none;align=center;verticalAlign=middle;whiteSpace=wrap;rounded=0;dashed=1;" vertex="1" parent="1">
          <mxGeometry x="170" y="560" width="60" height="30" as="geometry" />
        </mxCell>
      </root>
    </mxGraphModel>
  </diagram>
</mxfile>
